<svg width="40" height="40" viewBox="0 0 40 40" fill="none" xmlns="http://www.w3.org/2000/svg">
<path d="M20 36.6667C10.795 36.6667 3.33333 29.205 3.33333 20C3.33333 10.795 10.795 3.33333 20 3.33333C29.205 3.33333 36.6667 10.795 36.6667 20C36.6667 29.205 29.205 36.6667 20 36.6667ZM20 33.3333C23.5362 33.3333 26.9276 31.9286 29.4281 29.4281C31.9286 26.9276 33.3333 23.5362 33.3333 20C33.3333 16.4638 31.9286 13.0724 29.4281 10.5719C26.9276 8.07142 23.5362 6.66667 20 6.66667C16.4638 6.66667 13.0724 8.07142 10.5719 10.5719C8.07142 13.0724 6.66667 16.4638 6.66667 20C6.66667 23.5362 8.07142 26.9276 10.5719 29.4281C13.0724 31.9286 16.4638 33.3333 20 33.3333V33.3333ZM18.3333 21.32C17.456 20.9371 16.7373 20.2638 16.298 19.4133C15.8587 18.5628 15.7256 17.587 15.9212 16.6499C16.1168 15.7128 16.6291 14.8717 17.3719 14.2679C18.1147 13.6641 19.0427 13.3345 20 13.3345C20.9573 13.3345 21.8853 13.6641 22.6281 14.2679C23.3709 14.8717 23.8832 15.7128 24.0788 16.6499C24.2744 17.587 24.1413 18.5628 23.702 19.4133C23.2627 20.2638 22.544 20.9371 21.6667 21.32V26.6667H18.3333V21.32Z" fill="#28B76B"/>
</svg>
